<svg width="1182" height="689" viewBox="0 0 1182 689" fill="none" xmlns="http://www.w3.org/2000/svg">
<g clip-path="url(#clip0_35_4340)">
<g clip-path="url(#clip1_35_4340)">
<g clip-path="url(#clip2_35_4340)">
<g clip-path="url(#clip3_35_4340)">
<g clip-path="url(#clip4_35_4340)">
<g clip-path="url(#clip5_35_4340)">
<g clip-path="url(#clip6_35_4340)">
<path d="M321.835 395.486C312.389 395.486 303.766 393.727 295.968 390.209C288.169 386.716 281.207 381.722 275.082 375.228C268.956 368.733 264.294 361.045 261.096 352.165C257.923 343.284 256.336 334.059 256.336 324.489C256.336 314.649 257.935 305.399 261.133 296.74C264.356 288.105 268.87 280.589 274.676 274.193C280.457 267.797 287.357 262.754 295.377 259.064C303.397 255.374 312.216 253.529 321.835 253.529C331.503 253.529 340.359 255.374 348.404 259.064C356.448 262.754 363.349 267.797 369.105 274.193C374.886 280.589 379.364 288.105 382.537 296.74C385.735 305.399 387.334 314.649 387.334 324.489C387.334 334.354 385.723 343.591 382.5 352.202C379.277 360.812 374.776 368.34 368.994 374.785C363.189 381.206 356.276 386.261 348.256 389.951C340.236 393.641 331.429 395.486 321.835 395.486ZM321.835 378.733C328.969 378.733 335.439 377.27 341.245 374.342C347.026 371.39 351.959 367.429 356.042 362.46C360.126 357.515 363.287 351.771 365.526 345.227C367.74 338.684 368.847 331.771 368.847 324.489C368.847 317.06 367.629 309.876 365.194 302.939C362.758 296.002 359.363 290.122 355.009 285.3C350.655 280.503 345.599 276.801 339.843 274.193C334.086 271.586 328.084 270.282 321.835 270.282C314.676 270.282 308.182 271.746 302.352 274.673C296.546 277.625 291.601 281.573 287.517 286.518C283.409 291.487 280.248 297.256 278.034 303.825C275.82 310.393 274.713 317.281 274.713 324.489C274.713 332.902 275.943 340.406 278.403 346.999C280.863 353.567 284.123 359.028 288.182 363.383C292.241 367.737 297.075 371.39 302.684 374.342C308.293 377.27 314.676 378.733 321.835 378.733ZM399.032 314.969V299.47H428.737V307.22C432.722 304.144 437.052 301.709 441.726 299.913C446.4 298.117 451.234 297.219 456.228 297.219C462.353 297.219 467.975 298.351 473.092 300.614C478.184 302.902 482.575 306.125 486.265 310.282C489.955 314.415 492.821 319.384 494.863 325.19C496.905 330.971 497.926 337.38 497.926 344.416C497.926 351.919 496.794 358.77 494.531 364.969C492.243 371.144 489.07 376.445 485.011 380.874C480.951 385.277 476.13 388.709 470.545 391.169C464.961 393.629 458.836 394.859 452.169 394.859C447.421 394.859 443.202 394.367 439.512 393.383C435.822 392.399 432.292 391.12 428.921 389.545V419.73H443.534V435.228H399.216V419.73H411.984V314.969H399.032ZM451.8 311.98C447.495 311.98 443.337 312.853 439.327 314.6C435.342 316.346 431.873 318.745 428.921 321.795V372.349C430.914 374.391 433.755 376.224 437.445 377.848C441.135 379.471 445.748 380.283 451.283 380.283C455.121 380.283 458.811 379.533 462.353 378.032C465.896 376.532 469.02 374.293 471.726 371.316C474.432 368.34 476.597 364.662 478.221 360.283C479.844 355.879 480.656 350.799 480.656 345.043C480.656 339.754 479.881 335.067 478.332 330.984C476.806 326.9 474.74 323.444 472.132 320.615C469.525 317.81 466.474 315.67 462.981 314.194C459.512 312.718 455.785 311.98 451.8 311.98ZM598.296 348.29H531.1C531.1 350.922 531.284 353.333 531.653 355.523C532.047 357.737 532.613 359.828 533.351 361.796C535.565 367.798 539.119 372.325 544.015 375.375C548.91 378.401 554.446 379.914 560.62 379.914C565.491 379.914 570.227 379.238 574.827 377.885C579.427 376.532 584.249 374.416 589.292 371.538L596.045 382.977C589.92 387.184 583.757 390.308 577.558 392.35C571.383 394.392 564.962 395.412 558.296 395.412C551.998 395.412 546.155 394.355 540.768 392.239C535.405 390.148 530.78 387.024 526.893 382.866C523.031 378.733 519.993 373.579 517.778 367.405C515.589 361.205 514.494 353.997 514.494 345.781C514.494 339.114 515.429 332.816 517.299 326.888C519.168 320.984 521.948 315.817 525.638 311.389C529.328 306.986 533.904 303.493 539.365 300.909C544.827 298.326 551.198 297.035 558.48 297.035C565.491 297.035 571.358 298.093 576.082 300.208C580.805 302.349 584.655 305.178 587.632 308.696C590.584 312.213 592.835 316.223 594.385 320.725C595.91 325.227 596.968 329.815 597.558 334.489C597.878 336.777 598.075 339.09 598.148 341.427C598.247 343.788 598.296 346.076 598.296 348.29ZM557.299 311.094C553.388 311.094 549.981 311.648 547.078 312.755C544.175 313.862 541.703 315.448 539.661 317.515C537.594 319.581 535.946 322.127 534.716 325.153C533.486 328.155 532.576 331.513 531.985 335.227H580.362C580.116 331.734 579.563 328.524 578.702 325.596C577.816 322.644 576.475 320.086 574.68 317.921C572.884 315.756 570.571 314.071 567.742 312.865C564.913 311.685 561.432 311.094 557.299 311.094ZM682.504 392.793V377.294H695.677V334.674C695.677 327.54 693.857 322.127 690.216 318.437C686.575 314.723 681.36 312.865 674.57 312.865C670.683 312.865 666.759 313.8 662.799 315.67C658.838 317.539 655.074 319.852 651.507 322.607V377.294H664.681V392.793H621.064V377.294H634.053V314.969H621.064V299.47H650.806V310.467H650.99C652.958 308.72 655.074 307.06 657.337 305.485C659.601 303.935 661.962 302.582 664.422 301.426C666.882 300.294 669.441 299.397 672.098 298.732C674.779 298.068 677.596 297.736 680.548 297.736C685.517 297.736 690.019 298.425 694.054 299.802C698.064 301.205 701.483 303.308 704.312 306.112C707.141 308.942 709.318 312.57 710.844 316.998C712.369 321.402 713.131 326.605 713.131 332.607V377.294H726.121V392.793H682.504ZM864.314 292.238H844.941C840.907 285.399 835.581 280.024 828.963 276.112C822.321 272.225 814.916 270.282 806.749 270.282C799.787 270.282 793.415 271.746 787.634 274.673C781.878 277.625 776.945 281.573 772.837 286.518C768.704 291.487 765.506 297.232 763.243 303.751C760.955 310.27 759.811 317.134 759.811 324.341C759.811 332.853 761.066 340.406 763.575 346.999C766.109 353.567 769.405 359.028 773.464 363.383C777.499 367.737 782.32 371.365 787.929 374.268C793.514 377.196 799.787 378.659 806.749 378.659C816.245 378.659 824.498 376.359 831.509 371.759C838.545 367.159 844.548 359.606 849.517 349.102L865.384 356.593C863.096 363.063 859.222 369.324 853.76 375.375C848.299 381.402 841.559 386.261 833.539 389.951C825.519 393.641 816.651 395.486 806.933 395.486C797.61 395.486 789.049 393.727 781.25 390.209C773.427 386.716 766.478 381.722 760.401 375.228C754.3 368.733 749.639 361.045 746.416 352.165C743.218 343.284 741.619 334.01 741.619 324.341C741.619 314.6 743.218 305.399 746.416 296.74C749.639 288.105 754.141 280.589 759.922 274.193C765.727 267.797 772.64 262.754 780.66 259.064C788.68 255.374 797.376 253.529 806.749 253.529C815.088 253.529 822.296 254.71 828.373 257.071C834.424 259.433 839.566 262.262 843.797 265.558C848.053 268.83 851.706 272.385 854.757 276.223H864.314V292.238ZM879.333 314.969V299.47H909.776V377.294H923.835V392.793H879.517V377.294H892.875V314.969H879.333ZM889.702 266.407C889.702 264.833 890.022 263.344 890.661 261.942C891.276 260.515 892.113 259.285 893.17 258.252C894.228 257.194 895.471 256.346 896.898 255.706C898.349 255.091 899.886 254.783 901.51 254.783C903.06 254.783 904.548 255.091 905.975 255.706C907.377 256.346 908.607 257.194 909.665 258.252C910.723 259.285 911.559 260.515 912.174 261.942C912.814 263.344 913.134 264.833 913.134 266.407C913.134 268.031 912.814 269.556 912.174 270.983C911.559 272.434 910.723 273.714 909.665 274.821C908.607 275.928 907.377 276.801 905.975 277.441C904.548 278.056 903.06 278.363 901.51 278.363C899.886 278.363 898.349 278.056 896.898 277.441C895.471 276.801 894.228 275.928 893.17 274.821C892.113 273.714 891.276 272.434 890.661 270.983C890.022 269.556 889.702 268.031 889.702 266.407ZM932.027 314.969V299.47H964.278V314.969H955.533L978.596 379.287L1001.14 314.969H995.46V299.47H1025.02V314.969H1017.01L986.456 394.232H969.887L939.407 314.969H932.027ZM1037.6 314.969V299.47H1068.08V377.294H1082.1V392.793H1037.78V377.294H1051.14V314.969H1037.6ZM1047.97 266.407C1047.97 264.833 1048.29 263.344 1048.93 261.942C1049.54 260.515 1050.38 259.285 1051.44 258.252C1052.5 257.194 1053.74 256.346 1055.17 255.706C1056.62 255.091 1058.15 254.783 1059.78 254.783C1061.33 254.783 1062.82 255.091 1064.24 255.706C1065.64 256.346 1066.87 257.194 1067.93 258.252C1068.99 259.285 1069.83 260.515 1070.44 261.942C1071.08 263.344 1071.4 264.833 1071.4 266.407C1071.4 268.031 1071.08 269.556 1070.44 270.983C1069.83 272.434 1068.99 273.714 1067.93 274.821C1066.87 275.928 1065.64 276.801 1064.24 277.441C1062.82 278.056 1061.33 278.363 1059.78 278.363C1058.15 278.363 1056.62 278.056 1055.17 277.441C1053.74 276.801 1052.5 275.928 1051.44 274.821C1050.38 273.714 1049.54 272.434 1048.93 270.983C1048.29 269.556 1047.97 268.031 1047.97 266.407ZM1181.85 324.341H1164.91C1162.37 319.815 1159.18 316.506 1155.31 314.415C1151.43 312.324 1146.94 311.279 1141.85 311.279C1137.93 311.279 1134.27 312.078 1130.85 313.677C1127.43 315.301 1124.44 317.613 1121.88 320.615C1119.32 323.64 1117.31 327.294 1115.83 331.574C1114.38 335.879 1113.65 340.664 1113.65 345.928C1113.65 351.168 1114.38 355.892 1115.83 360.098C1117.31 364.305 1119.34 367.897 1121.92 370.873C1124.5 373.825 1127.49 376.101 1130.89 377.7C1134.28 379.299 1137.93 380.099 1141.85 380.099C1147.6 380.099 1152.62 378.696 1156.9 375.892C1161.16 373.112 1164.54 369.016 1167.05 363.604L1180.92 370.468C1179.13 374.305 1176.91 377.749 1174.28 380.8C1171.62 383.875 1168.64 386.495 1165.31 388.66C1161.97 390.824 1158.3 392.485 1154.32 393.641C1150.33 394.822 1146.11 395.412 1141.66 395.412C1135.17 395.412 1129.18 394.195 1123.69 391.759C1118.18 389.324 1113.43 385.917 1109.45 381.538C1105.46 377.159 1102.35 371.931 1100.11 365.855C1097.9 359.779 1096.79 353.136 1096.79 345.928C1096.79 338.721 1097.96 332.091 1100.29 326.039C1102.66 319.963 1105.88 314.747 1109.96 310.393C1114.05 306.039 1118.82 302.632 1124.28 300.171C1129.74 297.711 1135.6 296.481 1141.85 296.481C1147.72 296.481 1153.3 297.502 1158.56 299.544C1163.8 301.586 1168.4 304.686 1172.36 308.843H1181.85V324.341Z" fill="#0A7533"/>
</g>
</g>
</g>
</g>
</g>
</g>
</g>
<path d="M688.406 230.812V0.255859H0.163879V688.501H688.406V457.945H672.022V672.114H16.5478V16.6436H672.022V230.812H688.406Z" fill="#C10000"/>
<defs>
<clipPath id="clip0_35_4340">
<rect width="925.524" height="181.7" fill="white" transform="translate(256.329 253.529)"/>
</clipPath>
<clipPath id="clip1_35_4340">
<rect width="925.524" height="181.7" fill="white" transform="translate(256.329 253.529)"/>
</clipPath>
<clipPath id="clip2_35_4340">
<rect width="925.524" height="181.7" fill="white" transform="translate(256.329 253.529)"/>
</clipPath>
<clipPath id="clip3_35_4340">
<rect width="925.524" height="181.7" fill="white" transform="translate(256.329 253.529)"/>
</clipPath>
<clipPath id="clip4_35_4340">
<rect width="925.524" height="181.7" fill="white" transform="translate(256.329 253.529)"/>
</clipPath>
<clipPath id="clip5_35_4340">
<rect width="925.524" height="181.7" fill="white" transform="translate(256.329 253.529)"/>
</clipPath>
<clipPath id="clip6_35_4340">
<rect width="925.524" height="181.7" fill="white" transform="translate(256.329 253.529)"/>
</clipPath>
</defs>
</svg>
